<svg width="157" height="122" viewBox="0 0 157 122" fill="white" xmlns="http://www.w3.org/2000/svg">
    <path d="M152.592 92.724L156.463 102.755L106.667 121.973L74.7292 39.218L86.3125 34.7476L114.379 107.472L152.592 92.724Z"/>
    <path d="M53.1493 46.277C45.7986 55.7408 38.7058 64.3901 31.871 72.2248C25.0362 80.0596 18.2907 87.6544 11.6347 95.0094L0 90.6746C0.320228 76.8611 1.37348 62.5468 3.15974 47.7315C5.02598 32.9459 7.53901 17.0355 10.6988 0L22.9333 4.5583C21.7289 11.2126 20.5646 17.8817 19.4402 24.5658C18.3158 31.2498 17.291 37.7888 16.3657 44.1828C15.4703 50.4968 14.6642 56.571 13.9475 62.4052C13.2308 68.2394 12.703 73.6888 12.3642 78.7532C18.691 71.5487 25.5156 63.6191 32.8381 54.9643C40.1903 46.2296 47.4219 37.0856 54.5327 27.5324L64.6081 31.2863C63.7344 43.1634 63.2598 54.8248 63.1842 66.2707C63.1385 77.6366 63.1507 88.1135 63.221 97.7014C66.1688 93.7001 69.2805 89.259 72.5561 84.3782C75.8316 79.4973 79.1565 74.3616 82.5308 68.9712C86.0149 63.5306 89.5186 57.9151 93.0419 52.1249C96.595 46.2546 100.093 40.4095 103.537 34.5894L115.411 39.0137C106.574 53.9338 97.9836 67.5801 89.6403 79.9524C81.377 92.3544 72.8871 103.898 64.1707 114.583L52.5361 110.248C52.2353 100.301 52.1038 90.1444 52.1418 79.7773C52.1797 69.4102 52.5155 58.2434 53.1493 46.277Z"/>
</svg>
