<svg width="174" height="89" viewBox="0 0 174 89" fill="white" xmlns="http://www.w3.org/2000/svg">
    <path d="M173.376 77.952V88.704H120V0H132.416V77.952H173.376Z"/>
    <path d="M55.936 28.544C52.352 39.9787 48.7253 50.56 45.056 60.288C41.3867 70.016 37.7173 79.488 34.048 88.704H21.632C17.1093 75.648 13.0987 61.8667 9.6 47.36C6.18667 32.8533 2.98667 17.0667 0 0H13.056C14.2507 6.656 15.488 13.312 16.768 19.968C18.048 26.624 19.3707 33.1093 20.736 39.424C22.1013 45.6533 23.4667 51.6267 24.832 57.344C26.1973 63.0613 27.6053 68.352 29.056 73.216C32.4693 64.256 36.096 54.4427 39.936 43.776C43.776 33.024 47.36 21.9307 50.688 10.496H61.44C64.768 21.9307 68.3947 33.024 72.32 43.776C76.2453 54.4427 79.9147 64.256 83.328 73.216C84.6933 68.4373 86.0587 63.1893 87.424 57.472C88.7893 51.7547 90.112 45.7813 91.392 39.552C92.7573 33.2373 94.08 26.752 95.36 20.096C96.64 13.3547 97.8773 6.656 99.072 0H111.744C108.672 17.0667 105.387 32.8533 101.888 47.36C98.4747 61.8667 94.5493 75.648 90.112 88.704H77.696C73.9413 79.488 70.272 70.016 66.688 60.288C63.104 50.56 59.52 39.9787 55.936 28.544Z"/>
</svg>
